<svg width="136" height="36" viewBox="0 0 136 36" fill="none" xmlns="http://www.w3.org/2000/svg">
<g clip-path="url(#clip0_2_14)">
<path fill-rule="evenodd" clip-rule="evenodd" d="M25.0678 16.6206C25.6515 15.8924 26.0949 15.3357 26.3258 15.0382C26.4887 14.8285 26.5128 14.5267 26.4505 14.2689C26.1303 13.0846 25.5892 10.9624 27.6391 8.81616C29.9936 6.34975 34.3753 2.563 35.9493 1.19025L43 6.69966C42.0763 8.53283 39.4909 13.7221 37.7003 16.6078C36.0683 19.24 33.8384 19.1762 32.5691 19.1366C32.3013 19.138 32.0307 19.2485 31.865 19.461C31.5137 19.9101 30.6651 20.9683 29.5771 22.3198L35.2027 29.474C36.4054 31.0111 36.132 33.2423 34.5935 34.4451C33.9886 34.9168 33.1938 35.1902 32.3792 35.1902C31.3848 35.1902 30.3605 34.7822 29.6196 33.8345L24.9828 28.0162C22.753 30.7773 20.7909 33.2494 20.3971 33.7552C19.6774 34.6746 18.6418 35.1902 17.5793 35.1902C16.8554 35.1902 16.1202 34.9522 15.4628 34.438C13.7062 33.0667 13.6013 30.9473 14.8154 29.3947C15.3821 28.6679 17.8797 25.5342 20.4424 22.3595L19.5612 21.2602L16.7194 23.4815C14.0065 19.7585 9 9.89708 9 4.63841C9 1.05566 11.5132 1.19166 11.6024 1.19166C12.3717 1.19166 13.1381 1.543 13.6693 2.21591C14.27 2.97241 19.7723 9.92683 25.0678 16.6206ZM20.05 17.285L31.8522 32.0906C32.1795 32.5085 32.6711 32.3512 32.8468 32.2138L32.8482 32.2124C33.1556 31.9716 33.2108 31.5267 32.97 31.2179C32.97 31.2179 13.9597 7.16858 11.7781 4.39475C11.6789 6.41491 13.4568 12.4244 17.4476 19.3179L20.05 17.285ZM22.2557 24.6191L17.1373 31.0238C16.8922 31.3383 16.6769 31.7917 17.1416 32.1543C17.6062 32.5184 17.993 32.2308 18.2537 31.8965L23.1638 25.7496L22.2557 24.6191ZM27.7666 20.0305L29.7853 17.5216C30.2939 16.8685 30.8648 16.3089 32.2943 16.3004C33.3681 16.2947 34.3838 16.5795 35.2948 15.1147C36.8857 12.5462 39.6071 7.64458 39.6071 7.64458L39.0461 7.20541L34.721 12.8154L33.7888 12.0872L38.0119 6.39791L37.4282 5.94175L32.9133 11.4016L31.9996 10.689L36.3601 5.10875L35.8288 4.69225C35.8288 4.69225 31.7673 8.59516 29.689 10.7726C28.5429 11.9725 29.0529 12.916 29.2952 13.9431C29.6224 15.3314 29.1733 16.0015 28.6718 16.6447L26.8642 18.8915L27.7666 20.0305Z" fill="white"/>
</g>
<path d="M53.16 11.1302H52.24V15.1902H48.88V2.77025H52.94C54.3667 2.77025 55.4267 3.09691 56.12 3.75025C56.8133 4.40358 57.16 5.47691 57.16 6.97025C57.16 8.46358 56.8333 9.53025 56.18 10.1702C55.5267 10.8102 54.52 11.1302 53.16 11.1302ZM53.54 8.43025C53.66 8.20358 53.72 7.79691 53.72 7.21025C53.72 6.62358 53.6533 6.21025 53.52 5.97025C53.3867 5.73025 53.12 5.61025 52.72 5.61025H52.24V8.77025H52.8C53.1733 8.77025 53.42 8.65691 53.54 8.43025ZM66.6573 6.71025C66.6573 7.45691 66.544 8.07691 66.3173 8.57025C66.0907 9.06358 65.7373 9.51025 65.2573 9.91025L66.9173 15.1902H63.2173L61.9773 10.7102H61.5173V15.1902H58.1573V2.77025H62.7973C64.1307 2.77025 65.104 3.08358 65.7173 3.71025C66.344 4.33691 66.6573 5.33691 66.6573 6.71025ZM62.0373 8.61025C62.384 8.61025 62.6307 8.51025 62.7773 8.31025C62.924 8.11025 62.9973 7.75025 62.9973 7.23025C62.9973 6.69691 62.924 6.33025 62.7773 6.13025C62.6307 5.91691 62.3907 5.81025 62.0573 5.81025H61.5173V8.61025H62.0373ZM68.7802 4.07025C69.5535 3.07025 70.8135 2.57025 72.5602 2.57025C74.3068 2.57025 75.5535 3.06358 76.3002 4.05025C77.0602 5.03691 77.4402 6.64358 77.4402 8.87025C77.4402 11.0836 77.0535 12.7236 76.2802 13.7902C75.5068 14.8569 74.2535 15.3902 72.5202 15.3902C70.7868 15.3902 69.5402 14.8636 68.7802 13.8102C68.0202 12.7569 67.6402 11.1236 67.6402 8.91025C67.6402 6.68358 68.0202 5.07025 68.7802 4.07025ZM74.0002 8.87025C74.0002 7.64358 73.9002 6.81691 73.7002 6.39025C73.5135 5.95025 73.1202 5.73025 72.5202 5.73025C71.9335 5.73025 71.5535 5.95025 71.3802 6.39025C71.2068 6.81691 71.1202 7.63691 71.1202 8.85025V9.33025C71.1202 10.6236 71.2135 11.4769 71.4002 11.8902C71.6002 12.2902 71.9935 12.4902 72.5802 12.4902C73.1802 12.4902 73.5668 12.2969 73.7402 11.9102C73.9135 11.5236 74.0002 10.7236 74.0002 9.51025V8.87025ZM82.8019 2.77025V12.6902C82.8019 13.7169 82.5685 14.4236 82.1019 14.8102C81.6352 15.1969 80.7752 15.3902 79.5219 15.3902H78.5019L78.2419 12.6702H78.9219C79.1485 12.6702 79.2885 12.6436 79.3419 12.5902C79.4085 12.5236 79.4419 12.3902 79.4419 12.1902V2.77025H82.8019ZM91.2836 15.1902H84.5636V2.77025H91.4836L91.2836 5.83025H87.9836V7.69025H90.8436V10.3302H87.9836V12.3902H91.4836L91.2836 15.1902ZM101.45 15.1902H97.6695L96.1695 10.5102H95.9695V15.1902H92.6495V2.77025H95.9695V7.97025H96.1695L97.9695 2.77025H101.65L99.2295 9.19025L101.45 15.1902ZM109.577 5.79025H107.257V15.1902H103.837V5.79025H101.377L101.577 2.77025H109.777L109.577 5.79025ZM60.9 32.1902H57.76V25.7102H57.58L56.4 32.1902H53.18L52.06 25.7102H51.86V32.1902H48.76L49.18 19.7702H53.68L54.8 26.4902H54.96L56.04 19.7702H60.48L60.9 32.1902ZM71.4523 32.1902H68.1123L67.7323 30.2302H65.3723L64.9923 32.1902H61.8123L64.0923 19.7702H69.1723L71.4523 32.1902ZM67.3523 27.8902L66.6523 23.4502H66.5123L65.8123 27.8902H67.3523ZM81.2933 32.1902H77.5133L76.0133 27.5102H75.8133V32.1902H72.4933V19.7702H75.8133V24.9702H76.0133L77.8133 19.7702H81.4933L79.0733 26.1902L81.2933 32.1902ZM88.5203 32.1902H82.2003V28.6102L81.3403 29.1502V26.1902L82.2003 25.6502V19.7702H85.6203V23.4702L86.6803 22.7902V25.7502L85.6203 26.4302V29.4102H88.7203L88.5203 32.1902ZM90.1864 21.0702C90.9597 20.0702 92.2197 19.5702 93.9664 19.5702C95.7131 19.5702 96.9597 20.0636 97.7064 21.0502C98.4664 22.0369 98.8464 23.6436 98.8464 25.8702C98.8464 28.0836 98.4597 29.7236 97.6864 30.7902C96.9131 31.8569 95.6597 32.3902 93.9264 32.3902C92.1931 32.3902 90.9464 31.8636 90.1864 30.8102C89.4264 29.7569 89.0464 28.1236 89.0464 25.9102C89.0464 23.6836 89.4264 22.0702 90.1864 21.0702ZM95.4064 25.8702C95.4064 24.6436 95.3064 23.8169 95.1064 23.3902C94.9197 22.9502 94.5264 22.7302 93.9264 22.7302C93.3397 22.7302 92.9597 22.9502 92.7864 23.3902C92.6131 23.8169 92.5264 24.6369 92.5264 25.8502V26.3302C92.5264 27.6236 92.6197 28.4769 92.8064 28.8902C93.0064 29.2902 93.3997 29.4902 93.9864 29.4902C94.5864 29.4902 94.9731 29.2969 95.1464 28.9102C95.3197 28.5236 95.4064 27.7236 95.4064 26.5102V25.8702ZM112.548 19.7702L111.428 32.1902H107.308L106.228 26.6902H106.068L105.168 32.1902H101.028L99.7281 19.7702H103.008L103.528 26.3502H103.728L104.568 19.7702H107.908L108.828 26.3502H109.028L109.388 19.7702H112.548ZM117.421 32.1902H114.021V19.7702H117.421V32.1902ZM122.468 26.1102C122.468 27.2836 122.581 28.1236 122.808 28.6302C123.048 29.1236 123.434 29.3702 123.968 29.3702C124.501 29.3702 125.254 29.2436 126.228 28.9902L126.748 31.8102C125.694 32.1969 124.634 32.3902 123.568 32.3902C121.968 32.3902 120.801 31.8636 120.068 30.8102C119.348 29.7436 118.988 28.1636 118.988 26.0702C118.988 23.9636 119.368 22.3569 120.128 21.2502C120.888 20.1302 122.128 19.5702 123.848 19.5702C124.861 19.5702 125.828 19.7836 126.748 20.2102L126.208 23.3102C125.168 22.9636 124.441 22.7902 124.028 22.7902C123.441 22.7902 123.034 23.0502 122.808 23.5702C122.581 24.0769 122.468 24.9236 122.468 26.1102ZM135.551 32.1902H127.391L127.311 30.3502L130.971 22.8702H127.111L126.911 19.7702H135.351L135.451 21.7302L131.971 29.3302H135.551V32.1902Z" fill="white"/>
<defs>
<clipPath id="clip0_2_14">
<rect width="34" height="34" fill="white" transform="translate(9 1.19025)"/>
</clipPath>
</defs>
</svg>
